<?xml version="1.0" encoding="UTF-8" standalone="no"?>
<svg
   xmlns:dc="http://purl.org/dc/elements/1.1/"
   xmlns:cc="http://creativecommons.org/ns#"
   xmlns:rdf="http://www.w3.org/1999/02/22-rdf-syntax-ns#"
   xmlns:svg="http://www.w3.org/2000/svg"
   xmlns="http://www.w3.org/2000/svg"
   xmlns:sodipodi="http://sodipodi.sourceforge.net/DTD/sodipodi-0.dtd"
   xmlns:inkscape="http://www.inkscape.org/namespaces/inkscape"
   width="900"
   height="400"
   viewBox="0 0 238.12499 105.83333"
   version="1.1"
   id="svg8"
   sodipodi:docname="crowlogo.svg"
   inkscape:version="1.0.1 (3bc2e813f5, 2020-09-07)"
   inkscape:export-filename="/home/farook/vaiossd/Pictures/CrowLogo.png"
   inkscape:export-xdpi="324.99619"
   inkscape:export-ydpi="324.99619">
  <defs
     id="defs2" />
  <sodipodi:namedview
     id="base"
     pagecolor="#ffffff"
     bordercolor="#666666"
     borderopacity="1.0"
     inkscape:pageopacity="0.0"
     inkscape:pageshadow="2"
     inkscape:zoom="0.98994949"
     inkscape:cx="366.11209"
     inkscape:cy="132.19297"
     inkscape:document-units="mm"
     inkscape:current-layer="layer1"
     inkscape:document-rotation="0"
     showgrid="false"
     inkscape:window-width="1920"
     inkscape:window-height="1007"
     inkscape:window-x="0"
     inkscape:window-y="0"
     inkscape:window-maximized="1"
     units="px" />
  <metadata
     id="metadata5">
    <rdf:RDF>
      <cc:Work
         rdf:about="">
        <dc:format>image/svg+xml</dc:format>
        <dc:type
           rdf:resource="http://purl.org/dc/dcmitype/StillImage" />
        <dc:title></dc:title>
      </cc:Work>
    </rdf:RDF>
  </metadata>
  <g
     inkscape:label="Layer 1"
     inkscape:groupmode="layer"
     id="layer1"
     transform="translate(2.890729,-78.735456)">
    <path
       style="fill:#000000;stroke-width:0.0846667"
       d="m 69.27939,176.28991 c -3.572219,-2.5391 -6.958416,-4.99717 -7.297368,-5.29725 l -0.255219,-0.22595 0.463991,-1.397 c 0.255194,-0.76835 1.834897,-5.5499 3.510451,-10.62566 3.505253,-10.61849 6.335239,-19.079 8.227096,-24.59567 1.239876,-3.61549 1.312204,-3.86077 1.176445,-3.98957 -0.07956,-0.0755 -2.002027,-1.49736 -4.272152,-3.15973 -2.270126,-1.66237 -4.127501,-3.03677 -4.127501,-3.05422 0,-0.0174 0.447675,-0.17021 0.994834,-0.33945 4.886112,-1.51137 7.962219,-2.73416 9.445623,-3.75477 0.362819,-0.24963 0.387836,-0.2923 0.440626,-0.75162 0.254599,-2.21523 1.509656,-5.3475 3.28228,-8.19164 0.769332,-1.23437 1.327539,-1.89818 2.310037,-2.74704 1.807481,-1.56164 2.634149,-2.51066 2.87318,-3.29844 l 0.06174,-0.20349 c 0,0 -1.116855,-0.18993 -2.402627,0.0407 -1.285772,0.23063 -3.436624,1.2524 -4.036603,1.36237 -0.186563,0.0342 0.182778,-0.48864 0.827027,-0.89468 0.608067,-0.38324 2.967885,-1.869 2.967885,-1.99793 0,-0.15087 -1.203166,0.23729 -2.304491,0.84657 -1.380268,0.76359 -2.708103,1.73267 -3.500379,2.4425 -0.395318,0.35418 -0.527363,0.47539 -0.576329,0.38396 -0.06369,-0.11892 1.312215,-2.81404 2.077584,-4.10482 0.984944,-1.66108 1.899268,-2.849095 2.965763,-3.853485 0.843653,-0.79454 1.169069,-1.00799 2.819519,-1.84946 0.6985,-0.35612 1.337903,-0.70012 1.420901,-0.76444 0.08299,-0.0643 0.438345,-0.85281 0.789669,-1.7522 0.762127,-1.95101 1.125034,-2.52632 2.402087,-3.80797 1.702596,-1.70871 3.541031,-2.68504 7.452343,-3.95765 2.632651,-0.85657 3.351458,-1.00385 5.868538,-1.20244 1.91219,-0.15087 2.39954,-0.16398 3.09033,-0.0831 3.13158,0.36649 5.80892,1.54633 9.04057,3.98397 0.85831,0.64742 1.46873,1.21026 2.54753,2.34895 0.78031,0.82364 1.59139,1.60837 1.80239,1.74385 0.48283,0.31002 1.36664,0.63352 2.66964,0.97715 2.19445,0.57872 3.18724,0.98741 4.488,1.84752 3.01295,1.99228 4.94472,5.175535 5.50942,9.078665 0.16952,1.1717 0.12699,3.48037 -0.0873,4.74134 -0.6988,4.11128 -2.69437,8.25567 -5.88294,12.21763 -2.65138,3.29447 -6.19099,6.58361 -9.38246,8.71852 -0.38426,0.25705 -1.69459,0.97024 -2.91184,1.58486 -2.34712,1.18513 -3.18189,1.65693 -3.57412,2.02002 -0.32252,0.29857 -4.73349,1.93493 -5.57733,3.13278 -1.4867,2.11039 -2.81695,9.84328 -3.87325,13.56096 l -0.86395,3.04071 1.60672,2.35209 c 0.88369,1.29365 3.39835,4.98099 5.58813,8.19409 5.88176,8.63041 5.30521,7.83167 5.65314,7.83167 0.16249,0 1.33262,-0.0797 2.60029,-0.17705 3.58462,-0.27535 5.36791,-0.16751 6.66165,0.4029 0.53171,0.23444 1.31143,0.79856 1.44267,1.04376 0.0828,0.15478 0.0726,0.16086 -0.13666,0.0813 -0.1244,-0.0473 -0.35049,-0.21254 -0.53149,-0.32585 -0.60447,-0.37843 -0.80593,-0.43812 -2.50665,-0.55585 -1.41918,0.003 -3.18867,0.13023 -3.62073,0.26008 -0.35615,0.10703 0.0151,0.17949 1.19163,0.23259 1.82677,0.0824 3.32001,0.3425 4.45473,0.77585 0.34294,0.13097 0.37119,0.21293 0.56494,0.52514 0.24967,0.40148 0.44912,0.77 0.6691,1.1632 0,0.0755 -0.31013,-0.0966 -0.93952,-0.52131 -0.50651,-0.34182 -0.66835,-0.3991 -1.73854,-0.61535 -4.11561,-0.83164 -9.67012,-0.84815 -12.8894,-0.0383 -0.60141,0.1513 -0.83385,0.17774 -0.96159,0.10937 -0.23978,-0.12833 -0.12667,-0.19934 0.78105,-0.49027 0.97335,-0.31197 2.06406,-0.85524 2.10087,-1.04641 0.0148,-0.0767 -0.88293,-1.46501 -1.99488,-3.08513 -1.11196,-1.62011 -2.98963,-4.35536 -4.17261,-6.07833 -1.18297,-1.72297 -3.1054,-4.52332 -4.272074,-6.223 l -2.121213,-3.09033 -0.561704,-0.0557 c -0.672863,-0.0668 -0.65693,-0.61032 -1.066759,-1.02015 -0.393624,-0.39363 -0.327565,-0.76458 -0.321727,-1.56889 0.0042,-0.58339 0.04272,-0.93417 0.237368,-2.88281 0.343284,-3.43671 0.648722,-11.14728 0.594721,-11.20128 -0.01185,-0.0119 -2.390554,0.778 -2.736553,0.88937 -4.142858,1.33368 -6.369262,1.9958 -6.719782,1.99843 -0.142629,0.001 -0.754625,0.0789 -1.359992,0.173 -0.605367,0.0941 -2.23724,0.3376 -3.626375,0.54116 -1.389143,0.20355 -2.545901,0.39029 -2.570573,0.41496 -0.02467,0.0247 -0.360833,1.771 -0.747034,3.88073 -0.386197,2.10973 -0.955554,5.16937 -1.26524,6.79921 -0.976296,5.13812 -2.064443,10.8145 -2.669894,13.92766 -0.548282,2.8192 -1.290101,6.64221 -1.872882,9.652 -0.288412,1.48953 -0.318055,1.60918 -0.398208,1.60737 -0.03179,-8.5e-4 -1.356829,-0.92465 -2.944538,-2.05317 z m -34.959258,-2.99138 c -4.444023,-0.26522 -7.78031,-1.12134 -11.514667,-2.95474 -5.143411,-2.5252 -9.004713,-6.23346 -11.902166,-11.43041 -1.8173082,-3.25957 -3.5775452,-8.08774 -4.3060147,-11.811 -1.1022474,-5.63366 -0.8263924,-13.55896 0.7220112,-20.74333 0.4874514,-2.2617 1.8491514,-5.91975 3.2304905,-8.67833 2.027557,-4.04911 4.246852,-7.1529 7.29879,-10.2077 1.767742,-1.76941 3.244113,-2.98857 5.168556,-4.26812 6.495258,-4.318674 13.29411,-6.140524 22.915397,-6.140524 8.858289,0 15.796667,1.96538 21.143057,5.989034 1.248335,0.93949 3.342531,3.06097 4.284476,4.34031 1.974508,2.68174 3.592454,5.74425 4.012164,7.59438 0.174225,0.768 0.185599,1.54962 0.02255,1.54962 -0.254184,0 -5.652174,0.25229 -6.411216,0.29965 l -0.811905,0.0507 -0.322207,-0.91599 c -2.052618,-5.83532 -5.758061,-9.63056 -11.643535,-11.9257 -2.209869,-0.86178 -3.891241,-1.29177 -5.841449,-1.49387 -1.634146,-0.16935 -5.873303,-0.26846 -8.006278,0.0379 -1.992304,0.28616 -4.57002,1.10604 -6.471723,1.85786 -2.333163,0.9224 -4.637025,2.5004 -6.606032,4.52471 -2.306521,2.37131 -4.083692,5.23736 -5.59221,9.01856 -1.050305,2.63266 -1.970364,4.9296 -2.5795,8.77772 -0.714739,4.51526 -0.201028,6.49893 0.433729,10.97749 0.282748,1.99496 0.44584,2.72595 0.926337,4.15189 2.903777,8.61739 8.885128,14.83217 16.728335,17.38117 3.134681,1.01875 6.345967,1.56868 9.135342,1.56441 1.264403,-0.002 1.730551,-0.037 2.418249,-0.18179 1.807183,-0.38056 4.211384,-1.27165 6.175418,-2.28885 1.953682,-1.01183 3.598378,-2.15755 6.959042,-4.84774 1.592751,-1.27499 2.142625,-1.65606 2.142625,-1.48485 0,0.0153 -0.130174,0.50287 -0.289276,1.08338 -1.3425,4.8984 -4.763482,9.58029 -9.694963,13.26836 -4.970866,3.71752 -10.948286,6.07255 -17.109095,6.74076 -1.177855,0.12775 -3.717365,0.2186 -4.614334,0.16508 z m 156.111378,-3.95045 c -5.96358,-11.41255 -8.63113,-16.51439 -8.95311,-17.12337 -0.19696,-0.37253 -1.43972,-2.74478 -2.76167,-5.27167 -1.32195,-2.52689 -2.43282,-4.58429 -2.46859,-4.572 -0.0589,0.0202 -1.88075,3.11131 -8.14705,13.82301 -1.17137,2.00236 -3.46132,5.91595 -5.08876,8.69687 -1.62744,2.78091 -2.98344,5.02881 -3.01333,4.99533 -0.0299,-0.0335 -1.11017,-3.62322 -2.40061,-7.9772 -1.29044,-4.35399 -3.12161,-10.52619 -4.06925,-13.716 -0.94765,-3.18982 -2.6189,-8.81883 -3.7139,-12.50891 l -1.99092,-6.70923 2.33962,-6.6046 c 1.28679,-3.63253 2.36444,-6.60459 2.39479,-6.60459 0.0487,0 2.11538,5.34418 9.24124,23.89708 1.08652,2.82888 1.99739,5.14345 2.02416,5.1435 0.0268,4e-5 3.17001,-5.61956 6.985,-12.48801 3.81498,-6.86845 6.9554,-12.4882 6.9787,-12.48833 0.0233,-1.7e-4 0.68892,1.09513 1.47915,2.43392 0.79024,1.33879 2.88772,4.89162 4.66107,7.89517 1.77334,3.00355 4.15178,7.03262 5.28541,8.9535 1.13363,1.92087 2.08725,3.4925 2.11917,3.4925 0.0514,0 0.93542,-1.58245 6.12531,-10.96433 0.69551,-1.2573 2.84623,-5.1435 4.77936,-8.636 9.80461,-17.71353 13.69079,-24.736334 14.69964,-26.564074 0.61042,-1.1059 1.13213,-2.01078 1.15935,-2.01083 0.0272,-6e-5 0.45359,0.82857 0.9475,1.8414 0.49389,1.01282 2.42279,4.918014 4.28643,8.678204 l 3.38843,6.8367 -10.92831,19.66396 c -6.01058,10.81518 -13.6958,24.64532 -17.07826,30.73363 -3.38247,6.08832 -6.16899,11.06969 -6.19228,11.0697 -0.0233,3e-5 -0.96301,-1.76188 -2.08829,-3.91533 z m -64.12157,1.02464 c -3.66963,-0.19171 -7.98633,-1.65837 -10.58281,-3.59565 -0.88433,-0.65983 -2.17775,-1.95562 -2.853,-2.85827 -1.42479,-1.90459 -2.61502,-4.37519 -2.99447,-6.21572 -1.05662,-5.12518 -0.58389,-10.04301 1.40862,-14.6541 1.9011,-4.39954 5.30473,-8.4141 9.47131,-11.17135 3.55814,-2.35461 8.4428,-3.74058 13.18319,-3.74058 7.0087,0 12.17713,3.14629 15.25724,9.28785 0.64937,1.29481 1.10192,3.08025 1.46574,5.78281 0.21834,1.62195 0.21931,5.6984 0.002,7.15434 -0.60338,4.03687 -1.99529,7.22914 -4.57769,10.49866 -0.87042,1.10202 -3.15643,3.38427 -4.2853,4.27827 -4.71285,3.73226 -10.00679,5.52044 -15.49453,5.23374 z m 4.17259,-11.2837 c 4.53383,-0.85419 8.01726,-3.19446 9.71327,-6.52564 0.44117,-0.86652 0.98627,-2.42586 1.22826,-3.51367 0.19163,-0.86143 0.26506,-3.4611 0.12855,-4.55157 -0.13007,-1.03897 -0.49274,-2.48794 -0.84243,-3.36572 -0.65678,-1.64863 -1.68706,-2.85941 -2.96971,-3.48996 -1.53179,-0.75303 -2.91138,-0.99915 -5.20672,-0.92887 -1.73532,0.0531 -2.62085,0.20879 -4.22452,0.74257 -2.15678,0.71787 -3.82883,1.71746 -5.22169,3.1216 -2.76089,2.78328 -4.49051,7.37012 -4.15086,11.00782 0.21279,2.27912 0.91861,3.86635 2.37845,5.34862 1.41171,1.4334 2.69355,2.1043 4.51011,2.36055 0.99939,0.14097 3.37379,0.0361 4.65729,-0.20573 z"
       id="path26"
       sodipodi:nodetypes="cscsssssscsssssczcssssssssssssscsssssscsssssscssscsssscscsccsssssssssccssscccsssssssccccssssssssssssccsssssssssssccssssssccsssssssssscsssssssssssssssscssssssssssssscsssscsssssssssssc" />
    <path
       style="fill:#010000;fill-opacity:1;stroke-width:0.0846667"
       d="m 100.95374,171.10901 c -4.1e-4,-0.0172 0.42481,-0.16375 0.94495,-0.32557 0.52013,-0.16182 0.99458,-0.31099 1.05432,-0.33149 0.0848,-0.0292 0.0862,-0.0768 0.006,-0.21787 -0.20866,-0.36832 -10.950185,-15.72058 -11.242604,-16.06842 -0.05962,-0.0709 -0.295982,-0.2506 -0.52525,-0.39928 -0.895092,-0.58043 -0.863337,-1.85618 -0.80318,-3.21042 0.02658,-0.59894 0.771215,-5.06795 1.491861,-9.39694 l 0.297644,-1.78798 c 0,0 -0.607552,-0.94689 3.600609,-2.41413 0.343221,-0.11967 0.633888,-0.20822 0.645909,-0.19675 0.01203,0.0114 0.616817,1.86077 0.212543,4.03222 l -0.706969,3.79731 c 0,0 0,0 -0.417463,1.55135 -0.663151,2.46437 -0.798564,3.08375 -1.610943,5.38562 -0.439112,1.24422 -0.6823,2.26031 -0.70158,2.3144 -0.01927,0.0541 0.198595,0.47031 0.484162,0.92491 0.285576,0.4546 2.107625,3.3418 4.049019,6.41599 4.993972,7.90797 5.777202,9.08693 5.988772,9.01462 0.0719,-0.0245 0.36279,-0.14845 0.64645,-0.27532 0.58431,-0.2613 2.24505,-0.77345 3.30998,-1.02073 l 0.71353,-0.16568 0.42505,0.25623 0.42501,0.25623 -0.77418,0.0186 c -0.86578,0.0208 -1.566,0.15966 -1.70733,0.33853 -0.0785,0.0994 0.0348,0.1144 0.69539,0.0922 0.43405,-0.0144 1.19084,-0.0306 1.68175,-0.0354 l 0.89256,-0.009 0.33,0.29661 c 0.12162,0.10931 0.19804,0.18983 0.23555,0.25196 0.0376,0.0621 0.0362,0.10584 0.002,0.14154 -0.034,0.0357 -0.0753,0.053 -0.13356,0.0519 -0.0583,-0.002 -0.13345,-0.0211 -0.23537,-0.0598 -0.91405,-0.34638 -2.21414,-0.39029 -3.79181,-0.12849 -0.90397,0.15025 -2.41249,0.49222 -2.5411,0.57605 -0.0392,0.0255 -0.66947,0.11443 -1.40058,0.19738 -1.49047,0.16924 -1.54048,0.17343 -1.54153,0.1296 z"
       id="path28"
       sodipodi:nodetypes="sssssssscscscsssssssscccsscccsssscsscss" />
  </g>
</svg>
