<?xml version="1.0" encoding="UTF-8" standalone="no"?>
<svg
   xmlns:dc="http://purl.org/dc/elements/1.1/"
   xmlns:cc="http://creativecommons.org/ns#"
   xmlns:rdf="http://www.w3.org/1999/02/22-rdf-syntax-ns#"
   xmlns:svg="http://www.w3.org/2000/svg"
   xmlns="http://www.w3.org/2000/svg"
   xmlns:sodipodi="http://sodipodi.sourceforge.net/DTD/sodipodi-0.dtd"
   xmlns:inkscape="http://www.inkscape.org/namespaces/inkscape"
   width="95mm"
   height="95mm"
   viewBox="0 0 95 95"
   version="1.1"
   id="svg8"
   sodipodi:docname="crowbirdlight.svg"
   inkscape:version="1.0.1 (3bc2e813f5, 2020-09-07)">
  <defs
     id="defs2" />
  <sodipodi:namedview
     id="base"
     pagecolor="#ffffff"
     bordercolor="#666666"
     borderopacity="1.0"
     inkscape:pageopacity="0.0"
     inkscape:pageshadow="2"
     inkscape:zoom="0.98994949"
     inkscape:cx="148.31628"
     inkscape:cy="216.73575"
     inkscape:document-units="mm"
     inkscape:current-layer="layer1"
     inkscape:document-rotation="0"
     showgrid="false"
     inkscape:window-width="1920"
     inkscape:window-height="1007"
     inkscape:window-x="0"
     inkscape:window-y="0"
     inkscape:window-maximized="1" />
  <metadata
     id="metadata5">
    <rdf:RDF>
      <cc:Work
         rdf:about="">
        <dc:format>image/svg+xml</dc:format>
        <dc:type
           rdf:resource="http://purl.org/dc/dcmitype/StillImage" />
        <dc:title></dc:title>
      </cc:Work>
    </rdf:RDF>
  </metadata>
  <g
     inkscape:label="Layer 1"
     inkscape:groupmode="layer"
     id="layer1"
     transform="translate(-52.906909,-78.735456)">
    <path
       style="fill:#ffffff;stroke-width:0.0846667;fill-opacity:1"
       d="m 71.571997,171.19568 c -3.572219,-2.5391 -6.958416,-4.99717 -7.297368,-5.29725 l -0.255219,-0.22595 0.463991,-1.397 c 0.255194,-0.76835 1.834897,-5.5499 3.510451,-10.62566 3.505253,-10.61849 6.335239,-19.079 8.227096,-24.59567 1.239876,-3.61549 1.312204,-3.86077 1.176445,-3.98957 -0.07956,-0.0755 -2.002027,-1.49736 -4.272152,-3.15973 -2.270126,-1.66237 -4.127501,-3.03677 -4.127501,-3.05422 0,-0.0174 0.447675,-0.17021 0.994834,-0.33945 4.886112,-1.51137 7.962219,-2.73416 9.445623,-3.75477 0.362819,-0.24963 0.387836,-0.2923 0.440626,-0.75162 0.254599,-2.21523 1.509656,-5.3475 3.28228,-8.19164 0.769332,-1.23437 1.327539,-1.89818 2.310037,-2.74704 1.807481,-1.56165 2.634149,-2.51067 2.87318,-3.298457 l 0.06174,-0.20349 -2.402627,0.0407 c -0.884406,-0.0983 -3.436624,1.252417 -4.036603,1.362387 -0.186563,0.0342 0.182778,-0.48865 0.827027,-0.8947 0.608067,-0.383237 2.967885,-1.868996 2.967885,-1.997926 0,-0.15087 -1.203166,0.2373 -2.304491,0.84657 -1.380268,0.763599 -2.708103,1.732686 -3.500379,2.442516 -0.395318,0.35418 -0.527363,0.47539 -0.576329,0.38396 -0.06369,-0.11892 1.312215,-2.814056 2.077584,-4.104836 0.984944,-1.661076 1.899268,-2.849086 2.965763,-3.853476 0.843653,-0.79454 1.169069,-1.00799 2.819519,-1.84946 0.6985,-0.35612 1.337903,-0.70012 1.420901,-0.76444 0.08299,-0.0643 0.438345,-0.85281 0.789669,-1.7522 0.762127,-1.95101 1.125034,-2.52632 2.402087,-3.80797 1.702596,-1.70871 3.541031,-2.68504 7.45234,-3.95765 2.632654,-0.85657 3.351464,-1.00385 5.868544,-1.20244 1.91219,-0.15087 2.39954,-0.16398 3.09033,-0.0831 3.13159,0.36649 5.80893,1.54633 9.04058,3.98397 0.85831,0.64742 1.46873,1.21026 2.54753,2.34895 0.78031,0.82364 1.59139,1.60837 1.80239,1.74385 0.48283,0.31002 1.36664,0.63352 2.66964,0.97715 2.19445,0.57872 3.18724,0.98741 4.488,1.84752 3.01295,1.99228 4.94472,5.175526 5.50942,9.078652 0.16952,1.17171 0.12699,3.48039 -0.0873,4.74136 -0.6988,4.11128 -2.69437,8.25567 -5.88294,12.21763 -2.65138,3.29447 -6.19099,6.58361 -9.38246,8.71852 -0.38426,0.25705 -1.69459,0.97024 -2.91184,1.58486 -2.34712,1.18513 -3.18189,1.65693 -3.57412,2.02002 -0.32252,0.29857 -4.7335,1.93493 -5.57734,3.13278 -1.4867,2.11039 -2.81695,9.84328 -3.87325,13.56096 l -0.86395,3.04071 1.60672,2.35209 c 0.88369,1.29365 3.39835,4.98099 5.58814,8.19409 5.88176,8.63041 5.30521,7.83167 5.65314,7.83167 0.16249,0 1.33262,-0.0797 2.60029,-0.17705 3.58462,-0.27535 5.36791,-0.16751 6.66165,0.4029 0.53171,0.23444 1.31143,0.79856 1.44267,1.04376 0.0828,0.15478 0.0726,0.16086 -0.13666,0.0813 -0.1244,-0.0473 -0.35049,-0.21254 -0.53149,-0.32585 -0.60447,-0.37843 -0.80593,-0.43812 -2.50665,-0.55585 -1.41918,0.003 -3.18867,0.13023 -3.62073,0.26008 -0.35615,0.10703 0.0151,0.17949 1.19163,0.23259 1.82677,0.0824 3.32001,0.3425 4.45473,0.77585 0.34294,0.13097 0.37119,0.21293 0.56494,0.52514 0.24967,0.40148 0.44912,0.77 0.6691,1.1632 0,0.0755 -0.31013,-0.0966 -0.93952,-0.52131 -0.50651,-0.34182 -0.66835,-0.3991 -1.73854,-0.61535 -4.11561,-0.83164 -9.67012,-0.84815 -12.8894,-0.0383 -0.60141,0.1513 -0.83385,0.17774 -0.96159,0.10937 -0.23979,-0.12833 -0.12667,-0.19934 0.78105,-0.49027 0.97335,-0.31197 2.06406,-0.85524 2.10087,-1.04641 0.0148,-0.0767 -0.88293,-1.46501 -1.99488,-3.08513 -1.11197,-1.62011 -2.98963,-4.35536 -4.17261,-6.07833 -1.18298,-1.72297 -3.10541,-4.52332 -4.27208,-6.223 l -2.121217,-3.09033 -0.561707,-0.0557 c -0.672863,-0.0668 -0.65693,-0.61032 -1.066759,-1.02015 -0.393624,-0.39363 -0.327565,-0.76458 -0.321727,-1.56889 0.0042,-0.58339 0.04272,-0.93417 0.237368,-2.88281 0.343284,-3.43671 0.648721,-11.14728 0.594721,-11.20128 -0.0118,-0.0119 -2.390554,0.778 -2.736553,0.88937 -4.142858,1.33368 -6.369262,1.9958 -6.719782,1.99843 -0.142629,0.001 -0.754625,0.0789 -1.359992,0.173 -0.605367,0.0941 -2.23724,0.3376 -3.626375,0.54116 -1.389143,0.20355 -2.545901,0.39029 -2.570573,0.41496 -0.02467,0.0247 -0.360833,1.771 -0.747034,3.88073 -0.386197,2.10973 -0.955554,5.16937 -1.26524,6.79921 -0.976296,5.13812 -2.064443,10.8145 -2.669894,13.92766 -0.548282,2.8192 -1.290101,6.64221 -1.872882,9.652 -0.288412,1.48953 -0.318055,1.60918 -0.398208,1.60737 -0.03179,-8.5e-4 -1.356829,-0.92465 -2.944538,-2.05317 z"
       id="path26"
       sodipodi:nodetypes="cscsssssscsssssccsssssssssssssscsssssscsssssscssscsssscscsccsssssssssccssscccsssssssccc" />
    <path
       style="fill:#ffffff;fill-opacity:1;stroke-width:0.0846667"
       d="m 103.24635,166.01478 c -4.1e-4,-0.0172 0.42481,-0.16375 0.94495,-0.32557 0.52013,-0.16182 0.99458,-0.31099 1.05432,-0.33149 0.0849,-0.0292 0.0862,-0.0768 0.006,-0.21787 -0.20866,-0.36832 -10.950188,-15.72058 -11.242607,-16.06842 -0.05962,-0.0709 -0.295982,-0.2506 -0.52525,-0.39928 -0.895092,-0.58043 -0.863337,-1.85618 -0.80318,-3.21042 0.02658,-0.59894 0.771215,-5.06795 1.491861,-9.39694 l 0.297644,-1.78798 c 0,0 -0.607552,-0.94689 3.600609,-2.41413 0.343222,-0.11967 0.633892,-0.20822 0.645912,-0.19675 0.012,0.0114 0.616817,1.86077 0.21254,4.03222 l -0.706969,3.79731 c 0,0 0,0 -0.417463,1.55135 -0.663151,2.46437 -0.798564,3.08375 -1.610943,5.38562 -0.439112,1.24422 -0.6823,2.26031 -0.70158,2.3144 -0.01927,0.0541 0.198595,0.47031 0.484162,0.92491 0.285576,0.4546 2.107625,3.3418 4.049014,6.41599 4.99398,7.90797 5.77721,9.08693 5.98879,9.01462 0.0719,-0.0245 0.36278,-0.14845 0.64644,-0.27532 0.58431,-0.2613 2.24506,-0.77345 3.30998,-1.02073 l 0.71353,-0.16568 0.42505,0.25623 0.42502,0.25623 -0.77419,0.0186 c -0.86578,0.0208 -1.566,0.15966 -1.70733,0.33853 -0.0785,0.0994 0.0348,0.1144 0.69539,0.0922 0.43405,-0.0144 1.19084,-0.0306 1.68176,-0.0354 l 0.89256,-0.009 0.33,0.29661 c 0.12162,0.10931 0.19804,0.18983 0.23555,0.25196 0.0376,0.0621 0.0362,0.10584 0.002,0.14154 -0.034,0.0357 -0.0753,0.053 -0.13356,0.0519 -0.0583,-0.002 -0.13345,-0.0211 -0.23537,-0.0598 -0.91405,-0.34638 -2.21414,-0.39029 -3.79182,-0.12849 -0.90397,0.15025 -2.41249,0.49222 -2.5411,0.57605 -0.0392,0.0255 -0.66947,0.11443 -1.40058,0.19738 -1.49048,0.16924 -1.54048,0.17343 -1.54153,0.1296 z"
       id="path28"
       sodipodi:nodetypes="sssssssscscscsssssssscccsscccsssscsscss" />
  </g>
</svg>
